<svg width="253" height="45" viewBox="0 0 253 45" fill="none" xmlns="http://www.w3.org/2000/svg">
<path d="M74.2383 24.251V24.1861C74.2383 22.9524 74.0651 21.7729 73.7188 20.6475C73.3942 19.5004 72.8748 18.494 72.1605 17.6283C71.468 16.7409 70.5914 16.0375 69.5309 15.5181C68.4704 14.9986 67.2151 14.7389 65.765 14.7389C64.4881 14.7389 63.3194 14.977 62.2589 15.4531C61.22 15.9293 60.3218 16.5786 59.5643 17.401C58.8068 18.2234 58.2116 19.1866 57.7788 20.2904C57.3675 21.3941 57.1619 22.5629 57.1619 23.7965V23.8615C57.1619 25.2033 57.3892 26.4262 57.8437 27.5299C58.2982 28.6121 58.9258 29.5536 59.7266 30.3544C60.5491 31.1552 61.5122 31.772 62.616 32.2048C63.7414 32.6377 64.9534 32.8541 66.252 32.8541C67.8319 32.8541 69.2063 32.5728 70.375 32.0101C71.5437 31.4257 72.5393 30.6249 73.3617 29.6077L70.5373 27.1079C69.8447 27.7356 69.1738 28.1901 68.5245 28.4714C67.8752 28.7528 67.1394 28.8935 66.3169 28.8935C65.2131 28.8935 64.2825 28.6121 63.525 28.0494C62.7891 27.465 62.3021 26.6101 62.0641 25.4847H74.1734C74.195 25.2466 74.2058 25.041 74.2058 24.8679C74.2275 24.6947 74.2383 24.4891 74.2383 24.251ZM69.4335 22.4006H61.9991C62.1939 21.2751 62.6051 20.3769 63.2328 19.706C63.8821 19.0351 64.7262 18.6996 65.765 18.6996C66.8039 18.6996 67.6372 19.0459 68.2648 19.7385C68.8925 20.4094 69.282 21.2968 69.4335 22.4006Z" fill="white"/>
<path d="M90.642 29.6726L87.7527 26.7508C87.1467 27.3135 86.5298 27.768 85.9022 28.1143C85.2962 28.439 84.582 28.6013 83.7595 28.6013C83.0886 28.6013 82.4826 28.4822 81.9415 28.2442C81.4004 27.9845 80.9351 27.6382 80.5455 27.2053C80.156 26.7724 79.853 26.2638 79.6365 25.6795C79.4417 25.0951 79.3443 24.4675 79.3443 23.7965V23.7316C79.3443 23.0823 79.4417 22.4763 79.6365 21.9136C79.853 21.3292 80.1451 20.8206 80.5131 20.3877C80.9026 19.9549 81.3463 19.6194 81.8441 19.3813C82.3635 19.1216 82.9371 18.9918 83.5647 18.9918C84.4521 18.9918 85.188 19.1649 85.7723 19.5112C86.3783 19.8575 86.9627 20.3228 87.5254 20.9072L90.5446 17.6607C89.7222 16.7517 88.7699 16.0375 87.6877 15.5181C86.6056 14.9986 85.2421 14.7389 83.5972 14.7389C82.2553 14.7389 81.0217 14.977 79.8962 15.4531C78.7924 15.9293 77.8402 16.5786 77.0394 17.401C76.2386 18.2234 75.6109 19.1866 75.1564 20.2904C74.7019 21.3941 74.4747 22.5629 74.4747 23.7965V23.8615C74.4747 25.0951 74.7019 26.2638 75.1564 27.3676C75.6109 28.4498 76.2386 29.4021 77.0394 30.2245C77.8402 31.0253 78.7924 31.6638 79.8962 32.1399C81.0217 32.6161 82.2337 32.8541 83.5323 32.8541C85.2637 32.8541 86.6705 32.562 87.7527 31.9776C88.8348 31.3716 89.7979 30.6033 90.642 29.6726Z" fill="white"/>
<path d="M109.254 23.7965V23.7316C109.254 22.4763 109.016 21.3076 108.539 20.2254C108.063 19.1216 107.403 18.1693 106.559 17.3685C105.737 16.5461 104.752 15.9076 103.605 15.4531C102.458 14.977 101.213 14.7389 99.8713 14.7389C98.5078 14.7389 97.2525 14.977 96.1054 15.4531C94.9584 15.9293 93.9628 16.5786 93.1187 17.401C92.2746 18.2234 91.6145 19.1866 91.1384 20.2904C90.6622 21.3725 90.4241 22.5412 90.4241 23.7965V23.8615C90.4241 25.1168 90.6622 26.2963 91.1384 27.4001C91.6145 28.4822 92.2638 29.4345 93.0862 30.257C93.9303 31.0578 94.9259 31.6962 96.073 32.1724C97.2201 32.6269 98.4645 32.8541 99.8064 32.8541C101.17 32.8541 102.425 32.6161 103.572 32.1399C104.719 31.6638 105.715 31.0145 106.559 30.192C107.403 29.3696 108.063 28.4173 108.539 27.3352C109.016 26.2314 109.254 25.0518 109.254 23.7965ZM104.384 23.8615C104.384 24.5107 104.276 25.1276 104.059 25.7119C103.864 26.2747 103.572 26.7724 103.183 27.2053C102.793 27.6382 102.317 27.9845 101.754 28.2442C101.213 28.4822 100.586 28.6013 99.8713 28.6013C99.1787 28.6013 98.5511 28.4714 97.9884 28.2117C97.4473 27.952 96.9712 27.6057 96.5599 27.1728C96.1487 26.7183 95.8349 26.2097 95.6185 25.647C95.402 25.0626 95.2938 24.4458 95.2938 23.7965V23.7316C95.2938 23.0823 95.3912 22.4763 95.586 21.9136C95.8024 21.3292 96.1054 20.8206 96.495 20.3877C96.8846 19.9549 97.3499 19.6194 97.891 19.3813C98.4537 19.1216 99.0922 18.9918 99.8064 18.9918C100.477 18.9918 101.094 19.1216 101.657 19.3813C102.22 19.6411 102.707 19.9982 103.118 20.4527C103.529 20.8855 103.843 21.3941 104.059 21.9785C104.276 22.5412 104.384 23.1472 104.384 23.7965V23.8615Z" fill="white"/>
<path d="M126.786 32.4646V8.76544H124.287V18.8944C123.962 18.4182 123.583 17.9637 123.15 17.5309C122.739 17.098 122.274 16.7193 121.754 16.3946C121.235 16.07 120.651 15.8102 120.001 15.6155C119.352 15.4207 118.638 15.3233 117.859 15.3233C116.841 15.3233 115.857 15.5289 114.904 15.9401C113.952 16.3297 113.097 16.9032 112.34 17.6607C111.582 18.3966 110.976 19.3056 110.522 20.3877C110.067 21.4699 109.84 22.7036 109.84 24.0887C109.84 25.4739 110.067 26.7075 110.522 27.7897C110.976 28.8718 111.582 29.7916 112.34 30.5492C113.097 31.285 113.952 31.8477 114.904 32.2373C115.857 32.6269 116.841 32.8217 117.859 32.8217C118.638 32.8217 119.341 32.7243 119.969 32.5295C120.618 32.3347 121.203 32.0642 121.722 31.7179C122.241 31.3716 122.707 30.9712 123.118 30.5167C123.551 30.0622 123.94 29.586 124.287 29.0882V32.4646H126.786ZM124.384 24.0562C124.384 25.0302 124.211 25.9284 123.865 26.7508C123.54 27.5516 123.086 28.2333 122.501 28.7961C121.938 29.3588 121.289 29.8025 120.553 30.1271C119.839 30.4301 119.092 30.5816 118.313 30.5816C117.512 30.5816 116.755 30.4301 116.041 30.1271C115.326 29.8241 114.699 29.3912 114.158 28.8285C113.617 28.2442 113.184 27.5516 112.859 26.7508C112.556 25.95 112.405 25.0518 112.405 24.0562C112.405 23.039 112.556 22.13 112.859 21.3292C113.184 20.5068 113.606 19.825 114.125 19.284C114.666 18.7212 115.294 18.2992 116.008 18.0178C116.722 17.7148 117.491 17.5633 118.313 17.5633C119.092 17.5633 119.839 17.7257 120.553 18.0503C121.289 18.3533 121.938 18.7862 122.501 19.3489C123.086 19.9116 123.54 20.5934 123.865 21.3941C124.211 22.1949 124.384 23.0823 124.384 24.0562Z" fill="white"/>
<path d="M145.001 15.6804H142.339L136.95 29.6726L130.847 15.6804H128.087L135.716 32.3996C135.218 33.59 134.71 34.4124 134.19 34.8669C133.671 35.3214 133.033 35.5487 132.275 35.5487C131.734 35.5487 131.258 35.4946 130.847 35.3864C130.457 35.2998 130.057 35.1483 129.645 34.9319L128.801 36.9122C129.364 37.1936 129.927 37.3992 130.489 37.529C131.052 37.6805 131.68 37.7563 132.372 37.7563C133.628 37.7563 134.688 37.3992 135.554 36.685C136.441 35.9707 137.242 34.7479 137.956 33.0165L145.001 15.6804Z" fill="white"/>
<path d="M148.859 22.8551C148.859 22.0759 148.978 21.3617 149.216 20.7124C149.475 20.0631 149.832 19.5112 150.287 19.0567C150.741 18.5806 151.272 18.2234 151.878 17.9854C152.505 17.7257 153.176 17.5958 153.891 17.5958C155.384 17.5958 156.531 18.0503 157.332 18.9593C158.133 19.8683 158.533 21.102 158.533 22.6603V32.4646H161.033V22.0434C161.033 21.0479 160.881 20.1389 160.578 19.3164C160.297 18.494 159.875 17.7906 159.312 17.2062C158.771 16.6002 158.1 16.1349 157.299 15.8102C156.52 15.4856 155.622 15.3233 154.605 15.3233C153.155 15.3233 151.975 15.6479 151.066 16.2972C150.157 16.9249 149.421 17.6932 148.859 18.6022V15.6804H146.359V32.4646H148.859V22.8551Z" fill="white"/>
<path d="M169.838 17.6607C171.417 17.6607 172.64 18.0503 173.506 18.8294C174.393 19.587 174.837 20.7232 174.837 22.2382V22.8226C174.08 22.6062 173.3 22.433 172.5 22.3032C171.699 22.1733 170.757 22.1084 169.675 22.1084C168.615 22.1084 167.641 22.2274 166.753 22.4655C165.888 22.7036 165.13 23.0498 164.481 23.5043C163.853 23.9588 163.366 24.5324 163.02 25.225C162.674 25.8959 162.501 26.675 162.501 27.5624C162.501 28.4498 162.674 29.2181 163.02 29.8674C163.388 30.5167 163.864 31.0686 164.448 31.5231C165.054 31.9559 165.725 32.2806 166.461 32.497C167.219 32.7135 167.987 32.8217 168.766 32.8217C170.26 32.8217 171.493 32.5295 172.467 31.9451C173.463 31.3608 174.253 30.6898 174.837 29.9323V32.4646H177.239V22.2058C177.239 19.9765 176.623 18.2992 175.389 17.1738C174.155 16.0267 172.391 15.4531 170.097 15.4531C168.864 15.4531 167.771 15.583 166.818 15.8427C165.866 16.0808 164.925 16.4163 163.994 16.8491L164.741 18.8944C165.52 18.5264 166.31 18.2343 167.11 18.0178C167.933 17.7798 168.842 17.6607 169.838 17.6607ZM169.935 23.9588C170.974 23.9588 171.894 24.0346 172.694 24.1861C173.517 24.3376 174.242 24.4999 174.87 24.6731V26.2963C174.87 26.9672 174.718 27.5841 174.415 28.1468C174.134 28.6879 173.733 29.164 173.214 29.5752C172.716 29.9648 172.121 30.2786 171.428 30.5167C170.757 30.7331 170.032 30.8413 169.253 30.8413C168.69 30.8413 168.149 30.7656 167.63 30.6141C167.132 30.4626 166.688 30.2461 166.299 29.9648C165.909 29.6618 165.595 29.3047 165.357 28.8935C165.141 28.4822 165.033 28.0061 165.033 27.465C165.033 26.3829 165.455 25.528 166.299 24.9003C167.143 24.2727 168.355 23.9588 169.935 23.9588Z" fill="white"/>
<path d="M193.28 18.6671C192.826 17.7148 192.155 16.9249 191.267 16.2972C190.38 15.6479 189.255 15.3233 187.891 15.3233C187.177 15.3233 186.549 15.4099 186.008 15.583C185.467 15.7561 184.98 15.9942 184.547 16.2972C184.114 16.5786 183.725 16.914 183.379 17.3036C183.054 17.6932 182.751 18.0936 182.47 18.5048V15.6804H179.97V32.4646H182.47V22.8875C182.47 22.1084 182.589 21.405 182.827 20.7773C183.065 20.128 183.389 19.5653 183.801 19.0892C184.233 18.613 184.731 18.2451 185.294 17.9854C185.857 17.7257 186.473 17.5958 187.144 17.5958C188.486 17.5958 189.536 18.0395 190.293 18.9268C191.073 19.7926 191.462 21.0154 191.462 22.5953V32.4646H193.929V22.7901C193.929 21.9677 194.049 21.2318 194.287 20.5825C194.546 19.9332 194.882 19.3922 195.293 18.9593C195.726 18.5048 196.224 18.1693 196.786 17.9529C197.349 17.7148 197.944 17.5958 198.572 17.5958C199.935 17.5958 200.996 18.0395 201.753 18.9268C202.533 19.7926 202.922 21.037 202.922 22.6603V32.4646H205.422V22.0759C205.422 19.9765 204.87 18.3317 203.766 17.1413C202.662 15.9293 201.137 15.3233 199.189 15.3233C198.453 15.3233 197.782 15.4099 197.176 15.583C196.592 15.7561 196.061 15.9942 195.585 16.2972C195.109 16.6002 194.676 16.9573 194.287 17.3685C193.919 17.7798 193.583 18.2126 193.28 18.6671Z" fill="white"/>
<path d="M211.174 12.0119V9.25241H208.317V12.0119H211.174ZM210.979 32.4646V15.6804H208.479V32.4646H210.979Z" fill="white"/>
<path d="M228.597 29.6077L227.007 28.1143C226.336 28.8285 225.578 29.4237 224.734 29.8999C223.912 30.376 222.959 30.6141 221.877 30.6141C220.99 30.6141 220.167 30.4518 219.41 30.1271C218.674 29.7808 218.025 29.3155 217.462 28.7311C216.921 28.1251 216.488 27.4217 216.163 26.6209C215.86 25.8201 215.709 24.9652 215.709 24.0562C215.709 23.1472 215.86 22.3032 216.163 21.524C216.466 20.7232 216.888 20.0306 217.43 19.4463C217.971 18.8403 218.609 18.3749 219.345 18.0503C220.081 17.704 220.871 17.5309 221.715 17.5309C222.862 17.5309 223.825 17.7798 224.604 18.2776C225.405 18.7753 226.141 19.3705 226.812 20.0631L228.467 18.31C228.078 17.8988 227.656 17.5092 227.201 17.1413C226.747 16.7734 226.249 16.4595 225.708 16.1998C225.167 15.9185 224.572 15.702 223.922 15.5505C223.273 15.399 222.548 15.3233 221.747 15.3233C220.514 15.3233 219.367 15.5614 218.306 16.0375C217.267 16.492 216.358 17.1197 215.579 17.9204C214.822 18.7212 214.226 19.6627 213.793 20.7449C213.361 21.8054 213.144 22.9308 213.144 24.1212C213.144 25.3115 213.361 26.437 213.793 27.4975C214.226 28.558 214.822 29.4886 215.579 30.2894C216.358 31.0686 217.267 31.6962 218.306 32.1724C219.367 32.6269 220.514 32.8541 221.747 32.8541C223.327 32.8541 224.647 32.5511 225.708 31.9451C226.79 31.3391 227.753 30.56 228.597 29.6077Z" fill="white"/>
<path d="M241.657 27.7572V27.6923C241.657 26.9348 241.495 26.2963 241.17 25.7769C240.867 25.2574 240.456 24.8137 239.937 24.4458C239.417 24.0779 238.833 23.7749 238.184 23.5368C237.556 23.2987 236.918 23.0823 236.268 22.8875C235.706 22.7144 235.165 22.5412 234.645 22.3681C234.126 22.1949 233.66 22.0002 233.249 21.7837C232.86 21.5673 232.546 21.3184 232.308 21.037C232.07 20.734 231.951 20.3877 231.951 19.9982V19.9332C231.951 19.2407 232.243 18.6671 232.827 18.2126C233.411 17.7365 234.201 17.4984 235.197 17.4984C236.019 17.4984 236.853 17.6499 237.697 17.9529C238.562 18.2343 239.385 18.6238 240.164 19.1216L241.3 17.2387C240.435 16.676 239.471 16.2323 238.411 15.9076C237.35 15.5614 236.301 15.3882 235.262 15.3882C234.44 15.3882 233.671 15.5072 232.957 15.7453C232.264 15.9617 231.658 16.2864 231.139 16.7193C230.641 17.1305 230.252 17.6391 229.97 18.2451C229.689 18.8294 229.548 19.4787 229.548 20.193V20.2579C229.548 21.037 229.71 21.6863 230.035 22.2058C230.381 22.7252 230.814 23.1581 231.334 23.5043C231.875 23.8506 232.47 24.1428 233.119 24.3809C233.79 24.5973 234.45 24.8029 235.1 24.9977C235.641 25.1492 236.16 25.3115 236.658 25.4847C237.177 25.6578 237.632 25.8634 238.021 26.1015C238.411 26.3179 238.714 26.5777 238.93 26.8807C239.169 27.1837 239.288 27.5408 239.288 27.952V28.0169C239.288 28.8394 238.963 29.4886 238.314 29.9648C237.664 30.4409 236.831 30.679 235.814 30.679C234.818 30.679 233.823 30.495 232.827 30.1271C231.853 29.7592 230.912 29.2289 230.003 28.5363L228.737 30.3219C229.689 31.0794 230.782 31.6854 232.015 32.1399C233.249 32.5728 234.472 32.7892 235.684 32.7892C236.528 32.7892 237.307 32.681 238.021 32.4646C238.757 32.2265 239.385 31.891 239.904 31.4582C240.445 31.0253 240.867 30.5059 241.17 29.8999C241.495 29.2722 241.657 28.558 241.657 27.7572Z" fill="white"/>
<path d="M243.243 8.75095H245.334V8.11615H240.441V8.75095H242.531V14.2033H243.243V8.75095Z" fill="white"/>
<path d="M251.912 9.2727V14.2033H252.615V8.11615H251.903L249.634 11.438L247.366 8.11615H246.654V14.2033H247.339V9.2814L249.608 12.5336H249.643L251.912 9.2727Z" fill="white"/>
<g clip-path="url(#clip0_204_285)">
<path d="M32.6962 13.6659C32.0834 13.6659 31.334 13.325 30.517 12.7122L29.9719 12.1671L29.7676 12.0305L29.0859 11.3501V11.4177L28.2688 10.7373C24.9304 7.94403 21.2524 5.76483 17.6421 4.53794C15.1897 3.72092 13.0105 3.38004 11.1032 3.58429L10.0129 3.78855L10.1496 3.72091C18.2562 -1.66009 29.0182 -1.18393 36.715 5.0141L37.3278 5.62821L37.1235 6.51288C36.5108 8.21592 35.7614 9.91894 34.9444 11.5543L34.1273 12.9165L33.4456 13.4616C33.2413 13.5983 32.9694 13.6659 32.6962 13.6659Z" fill="white"/>
<path d="M17.6425 29.8099C16.8931 29.8775 16.2114 29.6733 15.531 29.2647L14.3054 27.9702C11.0346 24.3599 8.37795 20.2734 7.01579 16.3222C5.51701 11.8259 6.13114 8.76202 7.76519 7.12662C9.40059 5.49121 12.4658 4.87846 16.9608 6.44623C20.3668 7.53514 23.8405 9.64669 27.0424 12.3034L28.3369 13.3936C30.4484 15.0967 30.7217 17.0716 30.0399 18.638L29.699 19.3874L29.5624 19.524C27.0424 22.5892 24.1138 25.5178 21.0486 28.0392L19.8217 28.9238C19.0723 29.469 18.3243 29.8099 17.6425 29.8099Z" fill="white"/>
<path d="M41.6199 34.2375V34.1698C41.8918 32.2612 41.5522 30.082 40.7339 27.6296C39.8492 24.9729 38.3504 22.181 36.5108 19.5919L35.081 17.6846L34.8754 17.2085C34.7401 16.4591 34.8754 15.7097 35.2852 14.8237L35.3529 14.7561C36.4431 13.053 37.3278 11.2824 38.0772 9.51033L38.8942 7.19452L39.9845 8.28479C45.7064 15.3688 46.5247 25.1785 42.4369 32.943L41.6199 34.2375Z" fill="white"/>
<path d="M4.70026 36.2125L3.67762 34.8504C-1.22587 27.3578 -1.22587 17.6171 3.67762 10.1232L4.496 9.0343C3.95087 11.2135 4.22276 13.9378 5.17641 16.9354C6.60755 21.1585 9.33187 25.5182 12.8746 29.3327L13.2154 29.8089C14.5086 31.7175 13.7592 32.6698 12.8746 33.3516L11.7167 33.9644C10.5574 34.4419 9.3995 34.918 8.31059 35.3265C7.22032 35.6674 6.26667 35.9406 5.24539 36.1449L4.70026 36.2125Z" fill="white"/>
<path d="M33.3775 39.0734C32.083 39.0057 30.6532 38.7325 28.9502 38.1887C26.4287 37.3703 23.841 35.9405 21.321 34.2375L20.1631 33.2838L19.8222 33.0106C19.4137 32.5345 19.4137 32.1259 19.6856 31.6484L20.2307 31.1723L20.5716 30.8314C24.5228 27.9705 28.2008 24.3602 31.3336 20.4779L31.8111 19.8638H31.9477C32.6958 19.0468 33.7184 19.1144 34.3312 20.0694H34.3988L35.4201 21.4992C36.9202 23.7474 38.0781 26.0632 38.8261 28.2424C40.3249 32.8063 39.7811 35.8715 38.1457 37.5069C37.1231 38.5282 35.5567 39.141 33.3775 39.0734Z" fill="white"/>
<path d="M22.4785 45C16.689 45 10.9671 42.8208 6.60738 38.3921L6.12988 37.916L7.15252 37.7117C7.76529 37.5751 8.31042 37.3708 8.99082 37.1666C10.6939 36.6214 12.4659 35.8044 14.2366 34.9184L14.6451 34.7142L15.3945 34.3056C16.6213 34.1014 18.0511 34.3733 19.4823 35.3269L20.2303 35.872C22.8194 37.7117 25.6127 39.2105 28.337 40.0951C30.1077 40.6403 31.8107 41.0488 33.3771 41.0488C33.9899 41.0488 34.604 41.0488 35.1478 40.9812L35.3534 40.9135L34.8759 41.3207C31.1289 43.7731 26.7706 45 22.4785 45Z" fill="white"/>
</g>
<defs>
<clipPath id="clip0_204_285">
<rect width="44.9916" height="45" fill="white"/>
</clipPath>
</defs>
</svg>
