<svg width="253" height="45" viewBox="0 0 253 45" fill="none" xmlns="http://www.w3.org/2000/svg">
<path d="M74.2383 24.2511V24.1862C74.2383 22.9525 74.0651 21.773 73.7188 20.6475C73.3942 19.5004 72.8748 18.494 72.1605 17.6283C71.468 16.741 70.5914 16.0376 69.5309 15.5181C68.4704 14.9987 67.2151 14.739 65.765 14.739C64.4881 14.739 63.3194 14.9771 62.2589 15.4532C61.22 15.9293 60.3218 16.5786 59.5643 17.4011C58.8068 18.2235 58.2116 19.1866 57.7788 20.2904C57.3675 21.3942 57.1619 22.5629 57.1619 23.7966V23.8615C57.1619 25.2034 57.3892 26.4262 57.8437 27.53C58.2982 28.6122 58.9258 29.5536 59.7266 30.3544C60.5491 31.1552 61.5122 31.772 62.616 32.2049C63.7414 32.6378 64.9534 32.8542 66.252 32.8542C67.8319 32.8542 69.2063 32.5728 70.375 32.0101C71.5437 31.4258 72.5393 30.625 73.3617 29.6077L70.5373 27.108C69.8447 27.7356 69.1738 28.1901 68.5245 28.4715C67.8752 28.7528 67.1394 28.8935 66.3169 28.8935C65.2131 28.8935 64.2825 28.6122 63.525 28.0494C62.7891 27.4651 62.3021 26.6102 62.0641 25.4847H74.1734C74.195 25.2467 74.2058 25.0411 74.2058 24.8679C74.2275 24.6948 74.2383 24.4892 74.2383 24.2511ZM69.4335 22.4006H61.9991C62.1939 21.2752 62.6051 20.377 63.2328 19.7061C63.8821 19.0351 64.7262 18.6997 65.765 18.6997C66.8039 18.6997 67.6372 19.0459 68.2648 19.7385C68.8925 20.4095 69.282 21.2968 69.4335 22.4006Z" fill="#303030"/>
<path d="M90.642 29.6727L87.7527 26.7509C87.1467 27.3136 86.5298 27.7681 85.9022 28.1144C85.2962 28.439 84.582 28.6013 83.7595 28.6013C83.0886 28.6013 82.4826 28.4823 81.9415 28.2442C81.4004 27.9845 80.9351 27.6382 80.5455 27.2054C80.156 26.7725 79.853 26.2639 79.6365 25.6795C79.4417 25.0952 79.3443 24.4675 79.3443 23.7966V23.7317C79.3443 23.0824 79.4417 22.4764 79.6365 21.9136C79.853 21.3293 80.1451 20.8207 80.5131 20.3878C80.9026 19.9549 81.3463 19.6195 81.8441 19.3814C82.3635 19.1217 82.9371 18.9918 83.5647 18.9918C84.4521 18.9918 85.188 19.165 85.7723 19.5113C86.3783 19.8576 86.9627 20.3229 87.5254 20.9072L90.5446 17.6608C89.7222 16.7518 88.7699 16.0376 87.6877 15.5181C86.6056 14.9987 85.2421 14.739 83.5972 14.739C82.2553 14.739 81.0217 14.9771 79.8962 15.4532C78.7924 15.9293 77.8402 16.5786 77.0394 17.4011C76.2386 18.2235 75.6109 19.1866 75.1564 20.2904C74.7019 21.3942 74.4747 22.5629 74.4747 23.7966V23.8615C74.4747 25.0952 74.7019 26.2639 75.1564 27.3677C75.6109 28.4498 76.2386 29.4021 77.0394 30.2246C77.8402 31.0254 78.7924 31.6638 79.8962 32.14C81.0217 32.6161 82.2337 32.8542 83.5323 32.8542C85.2637 32.8542 86.6705 32.562 87.7527 31.9777C88.8348 31.3716 89.7979 30.6033 90.642 29.6727Z" fill="#303030"/>
<path d="M109.254 23.7966V23.7317C109.254 22.4764 109.016 21.3076 108.539 20.2255C108.063 19.1217 107.403 18.1694 106.559 17.3686C105.737 16.5462 104.752 15.9077 103.605 15.4532C102.458 14.9771 101.213 14.739 99.8713 14.739C98.5078 14.739 97.2525 14.9771 96.1054 15.4532C94.9584 15.9293 93.9628 16.5786 93.1187 17.4011C92.2746 18.2235 91.6145 19.1866 91.1384 20.2904C90.6622 21.3726 90.4241 22.5413 90.4241 23.7966V23.8615C90.4241 25.1168 90.6622 26.2964 91.1384 27.4002C91.6145 28.4823 92.2638 29.4346 93.0862 30.257C93.9303 31.0578 94.9259 31.6963 96.073 32.1724C97.2201 32.6269 98.4645 32.8542 99.8064 32.8542C101.17 32.8542 102.425 32.6161 103.572 32.14C104.719 31.6638 105.715 31.0145 106.559 30.1921C107.403 29.3697 108.063 28.4174 108.539 27.3352C109.016 26.2314 109.254 25.0519 109.254 23.7966ZM104.384 23.8615C104.384 24.5108 104.276 25.1276 104.059 25.712C103.864 26.2747 103.572 26.7725 103.183 27.2054C102.793 27.6382 102.317 27.9845 101.754 28.2442C101.213 28.4823 100.586 28.6013 99.8713 28.6013C99.1787 28.6013 98.5511 28.4715 97.9884 28.2118C97.4473 27.952 96.9712 27.6058 96.5599 27.1729C96.1487 26.7184 95.8349 26.2098 95.6185 25.6471C95.402 25.0627 95.2938 24.4459 95.2938 23.7966V23.7317C95.2938 23.0824 95.3912 22.4764 95.586 21.9136C95.8024 21.3293 96.1054 20.8207 96.495 20.3878C96.8846 19.9549 97.3499 19.6195 97.891 19.3814C98.4537 19.1217 99.0922 18.9918 99.8064 18.9918C100.477 18.9918 101.094 19.1217 101.657 19.3814C102.22 19.6411 102.707 19.9982 103.118 20.4527C103.529 20.8856 103.843 21.3942 104.059 21.9786C104.276 22.5413 104.384 23.1473 104.384 23.7966V23.8615Z" fill="#303030"/>
<path d="M126.786 32.4646V8.7655H124.287V18.8944C123.962 18.4183 123.583 17.9638 123.15 17.5309C122.739 17.0981 122.274 16.7193 121.754 16.3947C121.235 16.07 120.651 15.8103 120.001 15.6155C119.352 15.4207 118.638 15.3233 117.859 15.3233C116.841 15.3233 115.857 15.5289 114.904 15.9402C113.952 16.3297 113.097 16.9033 112.34 17.6608C111.582 18.3966 110.976 19.3057 110.522 20.3878C110.067 21.47 109.84 22.7036 109.84 24.0888C109.84 25.4739 110.067 26.7076 110.522 27.7897C110.976 28.8719 111.582 29.7917 112.34 30.5492C113.097 31.2851 113.952 31.8478 114.904 32.2374C115.857 32.6269 116.841 32.8217 117.859 32.8217C118.638 32.8217 119.341 32.7243 119.969 32.5295C120.618 32.3348 121.203 32.0642 121.722 31.7179C122.241 31.3716 122.707 30.9713 123.118 30.5167C123.551 30.0622 123.94 29.5861 124.287 29.0883V32.4646H126.786ZM124.384 24.0563C124.384 25.0302 124.211 25.9284 123.865 26.7509C123.54 27.5517 123.086 28.2334 122.501 28.7961C121.938 29.3588 121.289 29.8025 120.553 30.1272C119.839 30.4302 119.092 30.5817 118.313 30.5817C117.512 30.5817 116.755 30.4302 116.041 30.1272C115.326 29.8242 114.699 29.3913 114.158 28.8286C113.617 28.2442 113.184 27.5517 112.859 26.7509C112.556 25.9501 112.405 25.0519 112.405 24.0563C112.405 23.0391 112.556 22.1301 112.859 21.3293C113.184 20.5068 113.606 19.8251 114.125 19.284C114.666 18.7213 115.294 18.2993 116.008 18.0179C116.722 17.7149 117.491 17.5634 118.313 17.5634C119.092 17.5634 119.839 17.7257 120.553 18.0504C121.289 18.3534 121.938 18.7862 122.501 19.3489C123.086 19.9117 123.54 20.5934 123.865 21.3942C124.211 22.195 124.384 23.0824 124.384 24.0563Z" fill="#303030"/>
<path d="M145.001 15.6804H142.339L136.95 29.6727L130.847 15.6804H128.087L135.716 32.3997C135.218 33.5901 134.71 34.4125 134.19 34.867C133.671 35.3215 133.033 35.5488 132.275 35.5488C131.734 35.5488 131.258 35.4946 130.847 35.3864C130.457 35.2999 130.057 35.1484 129.645 34.9319L128.801 36.9123C129.364 37.1936 129.927 37.3992 130.489 37.5291C131.052 37.6806 131.68 37.7563 132.372 37.7563C133.628 37.7563 134.688 37.3992 135.554 36.685C136.441 35.9708 137.242 34.748 137.956 33.0165L145.001 15.6804Z" fill="#303030"/>
<path d="M148.859 22.8551C148.859 22.076 148.978 21.3617 149.216 20.7125C149.475 20.0632 149.832 19.5113 150.287 19.0568C150.741 18.5806 151.272 18.2235 151.878 17.9854C152.505 17.7257 153.176 17.5959 153.891 17.5959C155.384 17.5959 156.531 18.0504 157.332 18.9594C158.133 19.8684 158.533 21.102 158.533 22.6603V32.4646H161.033V22.0435C161.033 21.0479 160.881 20.1389 160.578 19.3165C160.297 18.494 159.875 17.7906 159.312 17.2063C158.771 16.6003 158.1 16.135 157.299 15.8103C156.52 15.4857 155.622 15.3233 154.605 15.3233C153.155 15.3233 151.975 15.648 151.066 16.2973C150.157 16.9249 149.421 17.6933 148.859 18.6023V15.6804H146.359V32.4646H148.859V22.8551Z" fill="#303030"/>
<path d="M169.838 17.6608C171.417 17.6608 172.64 18.0504 173.506 18.8295C174.393 19.587 174.837 20.7233 174.837 22.2383V22.8226C174.08 22.6062 173.3 22.4331 172.5 22.3032C171.699 22.1734 170.757 22.1084 169.675 22.1084C168.615 22.1084 167.641 22.2275 166.753 22.4655C165.888 22.7036 165.13 23.0499 164.481 23.5044C163.853 23.9589 163.366 24.5324 163.02 25.225C162.674 25.896 162.501 26.6751 162.501 27.5625C162.501 28.4498 162.674 29.2182 163.02 29.8675C163.388 30.5167 163.864 31.0686 164.448 31.5231C165.054 31.956 165.725 32.2807 166.461 32.4971C167.219 32.7135 167.987 32.8217 168.766 32.8217C170.26 32.8217 171.493 32.5296 172.467 31.9452C173.463 31.3608 174.253 30.6899 174.837 29.9324V32.4646H177.239V22.2058C177.239 19.9766 176.623 18.2993 175.389 17.1738C174.155 16.0267 172.391 15.4532 170.097 15.4532C168.864 15.4532 167.771 15.5831 166.818 15.8428C165.866 16.0808 164.925 16.4163 163.994 16.8492L164.741 18.8944C165.52 18.5265 166.31 18.2343 167.11 18.0179C167.933 17.7798 168.842 17.6608 169.838 17.6608ZM169.935 23.9589C170.974 23.9589 171.894 24.0347 172.694 24.1862C173.517 24.3377 174.242 24.5 174.87 24.6731V26.2964C174.87 26.9673 174.718 27.5841 174.415 28.1468C174.134 28.6879 173.733 29.1641 173.214 29.5753C172.716 29.9649 172.121 30.2787 171.428 30.5167C170.757 30.7332 170.032 30.8414 169.253 30.8414C168.69 30.8414 168.149 30.7656 167.63 30.6141C167.132 30.4626 166.688 30.2462 166.299 29.9648C165.909 29.6618 165.595 29.3047 165.357 28.8935C165.141 28.4823 165.033 28.0062 165.033 27.4651C165.033 26.3829 165.455 25.528 166.299 24.9004C167.143 24.2727 168.355 23.9589 169.935 23.9589Z" fill="#303030"/>
<path d="M193.28 18.6672C192.826 17.7149 192.155 16.9249 191.267 16.2973C190.38 15.648 189.255 15.3233 187.891 15.3233C187.177 15.3233 186.549 15.4099 186.008 15.5831C185.467 15.7562 184.98 15.9943 184.547 16.2973C184.114 16.5786 183.725 16.9141 183.379 17.3037C183.054 17.6933 182.751 18.0936 182.47 18.5049V15.6804H179.97V32.4646H182.47V22.8876C182.47 22.1084 182.589 21.405 182.827 20.7774C183.065 20.1281 183.389 19.5654 183.801 19.0892C184.233 18.6131 184.731 18.2451 185.294 17.9854C185.857 17.7257 186.473 17.5959 187.144 17.5959C188.486 17.5959 189.536 18.0395 190.293 18.9269C191.073 19.7926 191.462 21.0155 191.462 22.5954V32.4646H193.93V22.7902C193.93 21.9677 194.049 21.2319 194.287 20.5826C194.546 19.9333 194.882 19.3922 195.293 18.9594C195.726 18.5049 196.224 18.1694 196.786 17.953C197.349 17.7149 197.944 17.5959 198.572 17.5959C199.935 17.5959 200.996 18.0395 201.753 18.9269C202.533 19.7926 202.922 21.0371 202.922 22.6603V32.4646H205.422V22.076C205.422 19.9766 204.87 18.3317 203.766 17.1414C202.662 15.9293 201.137 15.3233 199.189 15.3233C198.453 15.3233 197.782 15.4099 197.176 15.5831C196.592 15.7562 196.061 15.9943 195.585 16.2973C195.109 16.6003 194.676 16.9574 194.287 17.3686C193.919 17.7798 193.583 18.2127 193.28 18.6672Z" fill="#303030"/>
<path d="M211.174 12.012V9.25247H208.317V12.012H211.174ZM210.979 32.4646V15.6804H208.479V32.4646H210.979Z" fill="#303030"/>
<path d="M228.597 29.6077L227.007 28.1144C226.336 28.8286 225.578 29.4238 224.734 29.8999C223.912 30.3761 222.959 30.6141 221.877 30.6141C220.99 30.6141 220.167 30.4518 219.41 30.1272C218.674 29.7809 218.025 29.3156 217.462 28.7312C216.921 28.1252 216.488 27.4218 216.163 26.621C215.86 25.8202 215.709 24.9653 215.709 24.0563C215.709 23.1473 215.86 22.3032 216.163 21.5241C216.466 20.7233 216.888 20.0307 217.43 19.4463C217.971 18.8403 218.609 18.375 219.345 18.0504C220.081 17.7041 220.871 17.5309 221.715 17.5309C222.862 17.5309 223.825 17.7798 224.604 18.2776C225.405 18.7754 226.141 19.3706 226.812 20.0632L228.467 18.3101C228.078 17.8989 227.656 17.5093 227.201 17.1414C226.747 16.7734 226.249 16.4596 225.708 16.1999C225.167 15.9185 224.572 15.7021 223.922 15.5506C223.273 15.3991 222.548 15.3233 221.747 15.3233C220.514 15.3233 219.367 15.5614 218.306 16.0376C217.267 16.4921 216.358 17.1197 215.579 17.9205C214.822 18.7213 214.226 19.6628 213.794 20.7449C213.361 21.8054 213.144 22.9309 213.144 24.1212C213.144 25.3116 213.361 26.437 213.794 27.4975C214.226 28.5581 214.822 29.4887 215.579 30.2895C216.358 31.0686 217.267 31.6963 218.306 32.1724C219.367 32.6269 220.514 32.8542 221.747 32.8542C223.327 32.8542 224.647 32.5512 225.708 31.9452C226.79 31.3392 227.753 30.56 228.597 29.6077Z" fill="#303030"/>
<path d="M241.657 27.7573V27.6923C241.657 26.9348 241.495 26.2964 241.17 25.7769C240.867 25.2575 240.456 24.8138 239.937 24.4459C239.417 24.0779 238.833 23.7749 238.184 23.5369C237.556 23.2988 236.918 23.0824 236.268 22.8876C235.706 22.7144 235.165 22.5413 234.645 22.3681C234.126 22.195 233.66 22.0002 233.249 21.7838C232.86 21.5674 232.546 21.3185 232.308 21.0371C232.07 20.7341 231.951 20.3878 231.951 19.9982V19.9333C231.951 19.2407 232.243 18.6672 232.827 18.2127C233.411 17.7365 234.201 17.4985 235.197 17.4985C236.019 17.4985 236.853 17.65 237.697 17.953C238.562 18.2343 239.385 18.6239 240.164 19.1217L241.3 17.2387C240.435 16.676 239.471 16.2323 238.411 15.9077C237.35 15.5614 236.301 15.3883 235.262 15.3883C234.439 15.3883 233.671 15.5073 232.957 15.7454C232.264 15.9618 231.658 16.2865 231.139 16.7193C230.641 17.1305 230.252 17.6391 229.97 18.2451C229.689 18.8295 229.548 19.4788 229.548 20.193V20.258C229.548 21.0371 229.71 21.6864 230.035 22.2058C230.381 22.7253 230.814 23.1581 231.334 23.5044C231.875 23.8507 232.47 24.1429 233.119 24.3809C233.79 24.5974 234.45 24.803 235.1 24.9978C235.641 25.1493 236.16 25.3116 236.658 25.4847C237.177 25.6579 237.632 25.8635 238.021 26.1016C238.411 26.318 238.714 26.5777 238.93 26.8807C239.169 27.1837 239.288 27.5408 239.288 27.952V28.017C239.288 28.8394 238.963 29.4887 238.314 29.9648C237.664 30.441 236.831 30.6791 235.814 30.6791C234.818 30.6791 233.823 30.4951 232.827 30.1272C231.853 29.7592 230.912 29.229 230.003 28.5364L228.737 30.322C229.689 31.0795 230.782 31.6855 232.015 32.14C233.249 32.5728 234.472 32.7893 235.684 32.7893C236.528 32.7893 237.307 32.6811 238.021 32.4646C238.757 32.2265 239.385 31.8911 239.904 31.4582C240.445 31.0254 240.867 30.5059 241.17 29.8999C241.495 29.2723 241.657 28.5581 241.657 27.7573Z" fill="#303030"/>
<path d="M243.243 8.75101H245.334V8.11621H240.441V8.75101H242.531V14.2033H243.243V8.75101Z" fill="#303030"/>
<path d="M251.912 9.27276V14.2033H252.615V8.11621H251.903L249.634 11.438L247.366 8.11621H246.654V14.2033H247.339V9.28146L249.608 12.5337H249.643L251.912 9.27276Z" fill="#303030"/>
<g clip-path="url(#clip0_204_692)">
<path d="M32.6962 13.666C32.0834 13.666 31.334 13.3251 30.517 12.7124L29.9719 12.1672L29.7676 12.0306L29.0859 11.3502V11.4178L28.2688 10.7375C24.9304 7.94415 21.2524 5.76495 17.6421 4.53806C15.1897 3.72104 13.0105 3.38016 11.1032 3.58442L10.0129 3.78867L10.1496 3.72104C18.2562 -1.65996 29.0182 -1.1838 36.715 5.01422L37.3278 5.62833L37.1235 6.513C36.5108 8.21604 35.7614 9.91906 34.9444 11.5545L34.1273 12.9166L33.4456 13.4618C33.2413 13.5984 32.9694 13.666 32.6962 13.666Z" fill="#BAD317"/>
<path d="M17.6425 29.81C16.8931 29.8776 16.2114 29.6734 15.531 29.2649L14.3054 27.9703C11.0346 24.36 8.37795 20.2735 7.01579 16.3223C5.51701 11.826 6.13114 8.76214 7.76519 7.12674C9.40059 5.49134 12.4658 4.87858 16.9608 6.44635C20.3668 7.53526 23.8405 9.64681 27.0424 12.3035L28.3369 13.3938C30.4484 15.0968 30.7217 17.0717 30.0399 18.6381L29.699 19.3875L29.5624 19.5241C27.0424 22.5893 24.1138 25.5179 21.0486 28.0393L19.8217 28.924C19.0723 29.4691 18.3243 29.81 17.6425 29.81Z" fill="#78A52B"/>
<path d="M41.6199 34.2373V34.1697C41.8918 32.261 41.5522 30.0819 40.7339 27.6294C39.8492 24.9727 38.3504 22.1808 36.5108 19.5917L35.081 17.6844L34.8754 17.2083C34.7401 16.4589 34.8754 15.7095 35.2852 14.8235L35.3529 14.7559C36.4431 13.0528 37.3278 11.2822 38.0772 9.51015L38.8942 7.19433L39.9845 8.2846C45.7064 15.3686 46.5247 25.1783 42.4369 32.9428L41.6199 34.2373Z" fill="#BAD317"/>
<path d="M4.70026 36.2124L3.67762 34.8502C-1.22587 27.3577 -1.22587 17.617 3.67762 10.1231L4.496 9.03417C3.95087 11.2134 4.22276 13.9377 5.17641 16.9352C6.60755 21.1583 9.33187 25.518 12.8746 29.3326L13.2154 29.8088C14.5086 31.7174 13.7592 32.6697 12.8746 33.3515L11.7167 33.9642C10.5574 34.4417 9.3995 34.9179 8.31059 35.3264C7.22032 35.6673 6.26667 35.9405 5.24539 36.1448L4.70026 36.2124Z" fill="#436F2B"/>
<path d="M33.3775 39.0735C32.083 39.0059 30.6532 38.7327 28.9502 38.1889C26.4287 37.3705 23.841 35.9407 21.321 34.2377L20.1631 33.284L19.8222 33.0108C19.4137 32.5346 19.4137 32.1261 19.6856 31.6486L20.2307 31.1725L20.5716 30.8316C24.5228 27.9707 28.2008 24.3603 31.3336 20.4781L31.8111 19.864H31.9477C32.6958 19.047 33.7184 19.1146 34.3312 20.0696H34.3988L35.4201 21.4994C36.9202 23.7476 38.0781 26.0634 38.8261 28.2425C40.3249 32.8065 39.7811 35.8717 38.1457 37.5071C37.1231 38.5284 35.5567 39.1412 33.3775 39.0735Z" fill="#78A52B"/>
<path d="M22.4785 45C16.689 45 10.9671 42.8208 6.60738 38.3921L6.12988 37.916L7.15252 37.7117C7.76529 37.5751 8.31042 37.3708 8.99082 37.1666C10.6939 36.6214 12.4659 35.8044 14.2366 34.9184L14.6451 34.7142L15.3945 34.3056C16.6213 34.1014 18.0511 34.3733 19.4823 35.3269L20.2303 35.872C22.8194 37.7117 25.6127 39.2105 28.337 40.0951C30.1077 40.6403 31.8107 41.0488 33.3771 41.0488C33.9899 41.0488 34.604 41.0488 35.1478 40.9812L35.3534 40.9135L34.8759 41.3207C31.1289 43.7731 26.7706 45 22.4785 45Z" fill="#436F2B"/>
</g>
<defs>
<clipPath id="clip0_204_692">
<rect width="44.9916" height="45" fill="white"/>
</clipPath>
</defs>
</svg>
