<svg width="146" height="26" viewBox="0 0 146 26" fill="none" xmlns="http://www.w3.org/2000/svg">
<path d="M42.8932 14.0117V13.9742C42.8932 13.2614 42.7932 12.5799 42.5931 11.9296C42.4055 11.2669 42.1054 10.6854 41.6927 10.1852C41.2926 9.67252 40.7861 9.26611 40.1734 8.96599C39.5606 8.66588 38.8354 8.51582 37.9975 8.51582C37.2598 8.51582 36.5845 8.65337 35.9718 8.92848C35.3715 9.20359 34.8526 9.57873 34.4149 10.0539C33.9772 10.5291 33.6333 11.0856 33.3832 11.7233C33.1457 12.3611 33.0269 13.0363 33.0269 13.7491V13.7866C33.0269 14.5619 33.1582 15.2684 33.4208 15.9062C33.6834 16.5314 34.046 17.0754 34.5087 17.5381C34.9839 18.0008 35.5403 18.3571 36.1781 18.6072C36.8283 18.8573 37.5286 18.9824 38.2789 18.9824C39.1918 18.9824 39.9858 18.8198 40.6611 18.4947C41.3363 18.1571 41.9116 17.6944 42.3867 17.1067L40.7549 15.6623C40.3547 16.025 39.9671 16.2876 39.5919 16.4502C39.2168 16.6127 38.7916 16.694 38.3164 16.694C37.6787 16.694 37.141 16.5314 36.7033 16.2063C36.2781 15.8687 35.9968 15.3747 35.8592 14.7245H42.8557C42.8682 14.5869 42.8744 14.4681 42.8744 14.3681C42.8869 14.2681 42.8932 14.1493 42.8932 14.0117ZM40.1171 12.9425H35.8217C35.9342 12.2923 36.1718 11.7733 36.5345 11.3857C36.9096 10.998 37.3973 10.8042 37.9975 10.8042C38.5978 10.8042 39.0792 11.0043 39.4418 11.4044C39.8045 11.7921 40.0296 12.3048 40.1171 12.9425Z" fill="white"/>
<path d="M52.3709 17.1442L50.7015 15.456C50.3514 15.7811 49.995 16.0437 49.6323 16.2438C49.2822 16.4314 48.8695 16.5252 48.3944 16.5252C48.0067 16.5252 47.6566 16.4564 47.3439 16.3189C47.0313 16.1688 46.7625 15.9687 46.5374 15.7186C46.3123 15.4685 46.1372 15.1747 46.0122 14.837C45.8996 14.4994 45.8434 14.1368 45.8434 13.7491V13.7116C45.8434 13.3364 45.8996 12.9863 46.0122 12.6612C46.1372 12.3235 46.306 12.0297 46.5186 11.7796C46.7437 11.5295 47.0001 11.3357 47.2877 11.1981C47.5878 11.0481 47.9192 10.973 48.2818 10.973C48.7945 10.973 49.2197 11.0731 49.5573 11.2731C49.9074 11.4732 50.2451 11.7421 50.5702 12.0797L52.3146 10.204C51.8394 9.67877 51.2892 9.26611 50.664 8.96599C50.0387 8.66588 49.2509 8.51582 48.3006 8.51582C47.5253 8.51582 46.8125 8.65337 46.1622 8.92848C45.5245 9.20359 44.9743 9.57873 44.5116 10.0539C44.0489 10.5291 43.6863 11.0856 43.4237 11.7233C43.1611 12.3611 43.0298 13.0363 43.0298 13.7491V13.7866C43.0298 14.4994 43.1611 15.1747 43.4237 15.8124C43.6863 16.4377 44.0489 16.9879 44.5116 17.463C44.9743 17.9257 45.5245 18.2946 46.1622 18.5697C46.8125 18.8448 47.5128 18.9824 48.2631 18.9824C49.2634 18.9824 50.0763 18.8136 50.7015 18.4759C51.3267 18.1258 51.8832 17.6819 52.3709 17.1442Z" fill="white"/>
<path d="M63.1243 13.7491V13.7116C63.1243 12.9863 62.9867 12.311 62.7116 11.6858C62.4365 11.0481 62.0551 10.4978 61.5674 10.0352C61.0922 9.55998 60.5232 9.19108 59.8605 8.92848C59.1977 8.65337 58.4787 8.51582 57.7034 8.51582C56.9156 8.51582 56.1903 8.65337 55.5275 8.92848C54.8648 9.20359 54.2896 9.57873 53.8019 10.0539C53.3142 10.5291 52.9328 11.0856 52.6577 11.7233C52.3826 12.3486 52.245 13.0238 52.245 13.7491V13.7866C52.245 14.5119 52.3826 15.1934 52.6577 15.8312C52.9328 16.4564 53.3079 17.0066 53.7831 17.4818C54.2708 17.9445 54.846 18.3134 55.5088 18.5885C56.1715 18.8511 56.8906 18.9824 57.6659 18.9824C58.4537 18.9824 59.179 18.8448 59.8417 18.5697C60.5045 18.2946 61.0797 17.9195 61.5674 17.4443C62.0551 16.9691 62.4365 16.4189 62.7116 15.7937C62.9867 15.1559 63.1243 14.4744 63.1243 13.7491ZM60.3107 13.7866C60.3107 14.1618 60.2481 14.5182 60.1231 14.8558C60.0105 15.1809 59.8417 15.4685 59.6166 15.7186C59.3915 15.9687 59.1164 16.1688 58.7913 16.3189C58.4787 16.4564 58.1161 16.5252 57.7034 16.5252C57.3032 16.5252 56.9406 16.4502 56.6155 16.3001C56.3028 16.15 56.0277 15.95 55.7901 15.6999C55.5526 15.4373 55.3712 15.1434 55.2462 14.8183C55.1211 14.4806 55.0586 14.1243 55.0586 13.7491V13.7116C55.0586 13.3364 55.1149 12.9863 55.2274 12.6612C55.3525 12.3235 55.5275 12.0297 55.7526 11.7796C55.9777 11.5295 56.2466 11.3357 56.5592 11.1981C56.8843 11.0481 57.2532 10.973 57.6659 10.973C58.0535 10.973 58.4099 11.0481 58.735 11.1981C59.0602 11.3482 59.3415 11.5545 59.5791 11.8171C59.8167 12.0672 59.998 12.3611 60.1231 12.6987C60.2481 13.0238 60.3107 13.374 60.3107 13.7491V13.7866Z" fill="white"/>
<path d="M73.2544 18.7573V5.06448H71.81V10.9168C71.6225 10.6416 71.4036 10.379 71.1535 10.1289C70.916 9.87885 70.6471 9.66001 70.347 9.47244C70.0469 9.28487 69.7092 9.13481 69.3341 9.02227C68.9589 8.90972 68.5463 8.85345 68.0961 8.85345C67.5084 8.85345 66.9394 8.97225 66.3892 9.20984C65.839 9.43493 65.345 9.76631 64.9074 10.204C64.4697 10.6291 64.1196 11.1543 63.857 11.7796C63.5944 12.4048 63.4631 13.1176 63.4631 13.9179C63.4631 14.7182 63.5944 15.431 63.857 16.0563C64.1196 16.6815 64.4697 17.213 64.9074 17.6506C65.345 18.0758 65.839 18.4009 66.3892 18.626C66.9394 18.8511 67.5084 18.9636 68.0961 18.9636C68.5463 18.9636 68.9527 18.9074 69.3153 18.7948C69.6905 18.6823 70.0281 18.526 70.3282 18.3259C70.6283 18.1258 70.8972 17.8945 71.1348 17.6319C71.3849 17.3693 71.61 17.0942 71.81 16.8065V18.7573H73.2544ZM71.8663 13.8992C71.8663 14.4619 71.7663 14.9808 71.5662 15.456C71.3786 15.9187 71.116 16.3126 70.7784 16.6377C70.4533 16.9629 70.0781 17.2192 69.653 17.4068C69.2403 17.5818 68.8089 17.6694 68.3587 17.6694C67.896 17.6694 67.4584 17.5818 67.0457 17.4068C66.633 17.2317 66.2704 16.9816 65.9578 16.6565C65.6451 16.3189 65.3951 15.9187 65.2075 15.456C65.0324 14.9933 64.9449 14.4744 64.9449 13.8992C64.9449 13.3114 65.0324 12.7862 65.2075 12.3235C65.3951 11.8484 65.6389 11.4545 65.939 11.1418C66.2516 10.8167 66.6143 10.5729 67.0269 10.4103C67.4396 10.2352 67.8835 10.1477 68.3587 10.1477C68.8089 10.1477 69.2403 10.2415 69.653 10.4291C70.0781 10.6041 70.4533 10.8542 70.7784 11.1794C71.116 11.5045 71.3786 11.8984 71.5662 12.3611C71.7663 12.8237 71.8663 13.3364 71.8663 13.8992Z" fill="white"/>
<path d="M83.7784 9.05978H82.2403L79.1266 17.1442L75.6002 9.05978H74.0058L78.4138 18.7198C78.1262 19.4076 77.8323 19.8827 77.5322 20.1453C77.2321 20.4079 76.8632 20.5392 76.4255 20.5392C76.1129 20.5392 75.8378 20.508 75.6002 20.4455C75.3751 20.3954 75.1438 20.3079 74.9062 20.1829L74.4185 21.3271C74.7436 21.4896 75.0687 21.6084 75.3939 21.6834C75.719 21.771 76.0816 21.8147 76.4818 21.8147C77.2071 21.8147 77.8198 21.6084 78.32 21.1958C78.8327 20.7831 79.2954 20.0766 79.708 19.0762L83.7784 9.05978Z" fill="white"/>
<path d="M86.0071 13.2051C86.0071 12.755 86.0759 12.3423 86.2134 11.9672C86.3635 11.592 86.5698 11.2731 86.8324 11.0105C87.095 10.7354 87.4014 10.5291 87.7515 10.3915C88.1142 10.2415 88.5018 10.1665 88.9145 10.1665C89.7773 10.1665 90.4401 10.4291 90.9028 10.9543C91.3654 11.4795 91.5968 12.1922 91.5968 13.0926V18.7573H93.0411V12.7362C93.0411 12.161 92.9536 11.6358 92.7785 11.1606C92.6159 10.6854 92.3721 10.279 92.047 9.94137C91.7343 9.59124 91.3467 9.32238 90.884 9.13481C90.4338 8.94724 89.9149 8.85345 89.3272 8.85345C88.4893 8.85345 87.8078 9.04102 87.2826 9.41617C86.7574 9.77881 86.3322 10.2227 86.0071 10.7479V9.05978H84.5628V18.7573H86.0071V13.2051Z" fill="white"/>
<path d="M98.1283 10.204C99.0411 10.204 99.7477 10.4291 100.248 10.8792C100.761 11.3169 101.017 11.9734 101.017 12.8488V13.1864C100.579 13.0613 100.129 12.9613 99.6664 12.8863C99.2037 12.8112 98.6597 12.7737 98.0345 12.7737C97.4218 12.7737 96.859 12.8425 96.3463 12.9801C95.8461 13.1176 95.4085 13.3177 95.0333 13.5803C94.6707 13.8429 94.3893 14.1743 94.1893 14.5744C93.9892 14.9621 93.8891 15.4123 93.8891 15.925C93.8891 16.4377 93.9892 16.8816 94.1893 17.2567C94.4018 17.6319 94.6769 17.9507 95.0146 18.2133C95.3647 18.4634 95.7524 18.651 96.1775 18.7761C96.6152 18.9011 97.0591 18.9636 97.5093 18.9636C98.3721 18.9636 99.0849 18.7948 99.6476 18.4572C100.223 18.1196 100.679 17.7319 101.017 17.2942V18.7573H102.405V12.83C102.405 11.542 102.049 10.5729 101.336 9.92262C100.623 9.25986 99.6039 8.92848 98.2783 8.92848C97.5656 8.92848 96.9341 9.00351 96.3839 9.15357C95.8336 9.29112 95.2897 9.48495 94.752 9.73504L95.1834 10.9168C95.6336 10.7042 96.09 10.5354 96.5527 10.4103C97.0279 10.2728 97.5531 10.204 98.1283 10.204ZM98.1846 13.8429C98.7848 13.8429 99.3162 13.8867 99.7789 13.9742C100.254 14.0617 100.673 14.1555 101.036 14.2556V15.1934C101.036 15.5811 100.948 15.9375 100.773 16.2626C100.611 16.5752 100.379 16.8503 100.079 17.0879C99.7914 17.313 99.4475 17.4943 99.0474 17.6319C98.6597 17.7569 98.2408 17.8194 97.7907 17.8194C97.4655 17.8194 97.1529 17.7757 96.8528 17.6881C96.5652 17.6006 96.3088 17.4756 96.0837 17.313C95.8587 17.1379 95.6773 16.9316 95.5398 16.694C95.4147 16.4564 95.3522 16.1813 95.3522 15.8687C95.3522 15.2434 95.5961 14.7495 96.0837 14.3869C96.5714 14.0242 97.2717 13.8429 98.1846 13.8429Z" fill="white"/>
<path d="M111.673 10.7855C111.41 10.2352 111.023 9.77881 110.51 9.41617C109.997 9.04102 109.347 8.85345 108.559 8.85345C108.147 8.85345 107.784 8.90347 107.471 9.00351C107.159 9.10355 106.877 9.2411 106.627 9.41617C106.377 9.57873 106.152 9.77256 105.952 9.99765C105.764 10.2227 105.589 10.4541 105.427 10.6917V9.05978H103.982V18.7573H105.427V13.2239C105.427 12.7737 105.496 12.3673 105.633 12.0047C105.771 11.6295 105.958 11.3044 106.196 11.0293C106.446 10.7542 106.734 10.5416 107.059 10.3915C107.384 10.2415 107.74 10.1665 108.128 10.1665C108.903 10.1665 109.51 10.4228 109.947 10.9355C110.397 11.4357 110.623 12.1422 110.623 13.0551V18.7573H112.048V13.1676C112.048 12.6924 112.117 12.2673 112.254 11.8921C112.404 11.517 112.598 11.2044 112.836 10.9543C113.086 10.6917 113.374 10.4978 113.699 10.3728C114.024 10.2352 114.368 10.1665 114.73 10.1665C115.518 10.1665 116.131 10.4228 116.569 10.9355C117.019 11.4357 117.244 12.1547 117.244 13.0926V18.7573H118.688V12.755C118.688 11.542 118.369 10.5916 117.732 9.90386C117.094 9.20359 116.212 8.85345 115.087 8.85345C114.662 8.85345 114.274 8.90347 113.924 9.00351C113.586 9.10355 113.28 9.2411 113.005 9.41617C112.73 9.59124 112.48 9.79757 112.254 10.0352C112.042 10.2728 111.848 10.5228 111.673 10.7855Z" fill="white"/>
<path d="M122.011 6.94021V5.34584H120.361V6.94021H122.011ZM121.899 18.7573V9.05978H120.455V18.7573H121.899Z" fill="white"/>
<path d="M132.078 17.1067L131.159 16.2438C130.772 16.6565 130.334 17.0004 129.846 17.2755C129.371 17.5506 128.821 17.6881 128.196 17.6881C127.683 17.6881 127.208 17.5943 126.77 17.4068C126.345 17.2067 125.97 16.9378 125.645 16.6002C125.332 16.2501 125.082 15.8437 124.894 15.381C124.719 14.9183 124.632 14.4244 124.632 13.8992C124.632 13.374 124.719 12.8863 124.894 12.4361C125.069 11.9734 125.313 11.5733 125.626 11.2356C125.939 10.8855 126.307 10.6166 126.733 10.4291C127.158 10.229 127.614 10.1289 128.102 10.1289C128.765 10.1289 129.321 10.2728 129.771 10.5604C130.234 10.848 130.659 11.1919 131.047 11.592L132.003 10.5791C131.778 10.3415 131.534 10.1164 131.272 9.90386C131.009 9.69128 130.722 9.50996 130.409 9.3599C130.096 9.19733 129.752 9.07229 129.377 8.98475C129.002 8.89722 128.583 8.85345 128.121 8.85345C127.408 8.85345 126.745 8.991 126.132 9.26611C125.532 9.52871 125.007 9.89135 124.557 10.354C124.119 10.8167 123.775 11.3607 123.525 11.9859C123.275 12.5987 123.15 13.2489 123.15 13.9367C123.15 14.6244 123.275 15.2747 123.525 15.8874C123.775 16.5002 124.119 17.0379 124.557 17.5006C125.007 17.9507 125.532 18.3134 126.132 18.5885C126.745 18.8511 127.408 18.9824 128.121 18.9824C129.033 18.9824 129.796 18.8073 130.409 18.4572C131.034 18.1071 131.591 17.6569 132.078 17.1067Z" fill="white"/>
<path d="M139.624 16.0375V16C139.624 15.5623 139.53 15.1934 139.343 14.8933C139.168 14.5932 138.93 14.3368 138.63 14.1243C138.33 13.9117 137.992 13.7366 137.617 13.599C137.255 13.4615 136.886 13.3364 136.511 13.2239C136.185 13.1239 135.873 13.0238 135.573 12.9238C135.273 12.8237 135.004 12.7112 134.766 12.5862C134.541 12.4611 134.36 12.3173 134.222 12.1547C134.085 11.9797 134.016 11.7796 134.016 11.5545V11.517C134.016 11.1168 134.185 10.7855 134.522 10.5228C134.86 10.2477 135.316 10.1102 135.892 10.1102C136.367 10.1102 136.848 10.1977 137.336 10.3728C137.836 10.5354 138.311 10.7604 138.761 11.0481L139.418 9.96013C138.918 9.635 138.361 9.37865 137.749 9.19108C137.136 8.991 136.529 8.89096 135.929 8.89096C135.454 8.89096 135.01 8.95974 134.597 9.09729C134.197 9.22234 133.847 9.40992 133.547 9.66001C133.259 9.89761 133.034 10.1915 132.872 10.5416C132.709 10.8792 132.628 11.2544 132.628 11.667V11.7046C132.628 12.1547 132.722 12.5299 132.909 12.83C133.109 13.1301 133.359 13.3802 133.659 13.5803C133.972 13.7804 134.316 13.9492 134.691 14.0867C135.079 14.2118 135.46 14.3306 135.835 14.4431C136.148 14.5307 136.448 14.6244 136.736 14.7245C137.036 14.8245 137.298 14.9433 137.523 15.0809C137.749 15.2059 137.924 15.356 138.049 15.531C138.186 15.7061 138.255 15.9124 138.255 16.15V16.1876C138.255 16.6627 138.067 17.0379 137.692 17.313C137.317 17.5881 136.836 17.7257 136.248 17.7257C135.673 17.7257 135.097 17.6194 134.522 17.4068C133.96 17.1942 133.416 16.8878 132.89 16.4877L132.159 17.5193C132.709 17.957 133.341 18.3071 134.053 18.5697C134.766 18.8198 135.473 18.9449 136.173 18.9449C136.661 18.9449 137.111 18.8824 137.523 18.7573C137.949 18.6197 138.311 18.4259 138.611 18.1758C138.924 17.9257 139.168 17.6256 139.343 17.2755C139.53 16.9128 139.624 16.5002 139.624 16.0375Z" fill="white"/>
<path d="M140.54 5.0561H141.748V4.68933H138.921V5.0561H140.129V8.20632H140.54V5.0561Z" fill="white"/>
<path d="M145.549 5.35756V8.20632H145.955V4.68933H145.544L144.233 6.6086L142.922 4.68933H142.511V8.20632H142.907V5.36258L144.218 7.24166H144.238L145.549 5.35756Z" fill="white"/>
<g clip-path="url(#clip0_124_2141)">
<path d="M18.8912 7.89587C18.5371 7.89587 18.1041 7.69892 17.6321 7.34488L17.3171 7.02991L17.1991 6.95098L16.8052 6.55785V6.59693L16.3331 6.20382C14.4043 4.58991 12.2792 3.33082 10.1932 2.62195C8.77629 2.14989 7.5172 1.95294 6.41521 2.07095L5.78528 2.18897L5.86422 2.14989C10.5481 -0.959136 16.7661 -0.684022 21.2132 2.89706L21.5672 3.25188L21.4492 3.76302C21.0951 4.747 20.6622 5.73097 20.1901 6.67586L19.718 7.46289L19.3241 7.77786C19.2061 7.8568 19.049 7.89587 18.8912 7.89587Z" fill="white"/>
<path d="M10.1935 17.2235C9.76051 17.2625 9.3666 17.1445 8.97348 16.9085L8.26539 16.1606C6.3756 14.0746 4.84062 11.7135 4.0536 9.43059C3.18764 6.8327 3.54246 5.06248 4.48658 4.11758C5.43148 3.17268 7.20248 2.81865 9.79958 3.72447C11.7675 4.35362 13.7746 5.57362 15.6245 7.1086L16.3724 7.73853C17.5925 8.7225 17.7503 9.86357 17.3564 10.7686L17.1595 11.2016L17.0805 11.2805C15.6245 13.0515 13.9324 14.7436 12.1614 16.2004L11.4526 16.7115C11.0196 17.0265 10.5874 17.2235 10.1935 17.2235Z" fill="white"/>
<path d="M24.0471 19.7816V19.7425C24.2042 18.6398 24.008 17.3807 23.5352 15.9637C23.024 14.4288 22.1581 12.8156 21.0951 11.3197L20.269 10.2177L20.1502 9.94263C20.0721 9.50965 20.1502 9.07667 20.3871 8.56475L20.4261 8.52568C21.0561 7.54171 21.5672 6.51865 22.0002 5.49481L22.4722 4.15679L23.1022 4.78672C26.4081 8.87972 26.881 14.5475 24.5191 19.0337L24.0471 19.7816Z" fill="white"/>
<path d="M2.7157 20.9229L2.12485 20.1358C-0.708283 15.8068 -0.708283 10.1788 2.12485 5.84902L2.59769 5.21987C2.28272 6.47896 2.43982 8.05301 2.99081 9.78493C3.8177 12.2249 5.39174 14.7439 7.43863 16.9479L7.63558 17.223C8.38275 18.3258 7.94977 18.876 7.43863 19.2699L6.76962 19.6239C6.09983 19.8998 5.43082 20.1749 4.80167 20.4109C4.17174 20.6079 3.62074 20.7658 3.03067 20.8838L2.7157 20.9229Z" fill="white"/>
<path d="M19.2847 22.5757C18.5368 22.5366 17.7107 22.3787 16.7267 22.0645C15.2699 21.5917 13.7748 20.7656 12.3188 19.7816L11.6497 19.2306L11.4528 19.0728C11.2168 18.7977 11.2168 18.5616 11.3739 18.2857L11.6888 18.0106L11.8858 17.8137C14.1687 16.1607 16.2937 14.0747 18.1038 11.8317L18.3797 11.4768H18.4586C18.8908 11.0048 19.4817 11.0439 19.8357 11.5956H19.8748L20.4649 12.4217C21.3316 13.7207 22.0006 15.0587 22.4328 16.3178C23.2988 18.9547 22.9846 20.7257 22.0397 21.6706C21.4489 22.2607 20.5438 22.6148 19.2847 22.5757Z" fill="white"/>
<path d="M12.9876 26C9.64256 26 6.33659 24.7409 3.81764 22.1821L3.54175 21.907L4.1326 21.789C4.48665 21.71 4.80161 21.592 5.19473 21.474C6.17871 21.1591 7.20255 20.687 8.2256 20.1751L8.46163 20.0571L8.89461 19.821C9.60348 19.703 10.4296 19.8601 11.2565 20.4111L11.6887 20.7261C13.1846 21.789 14.7985 22.6549 16.3725 23.1661C17.3956 23.4811 18.3795 23.7171 19.2846 23.7171C19.6386 23.7171 19.9935 23.7171 20.3076 23.678L20.4264 23.6389L20.1505 23.8742C17.9856 25.2911 15.4675 26 12.9876 26Z" fill="white"/>
</g>
<defs>
<clipPath id="clip0_124_2141">
<rect width="25.9951" height="26" fill="white"/>
</clipPath>
</defs>
</svg>
